<svg width="102" height="102" viewBox="0 0 102 102" fill="none" xmlns="http://www.w3.org/2000/svg">
<g clip-path="url(#clip0_2632:2676)">
<path d="M33.1758 101.854V90.6343H35.5039V99.6686H40.4511V101.709H33.1758V101.854Z" fill="#D78C4E"/>
<path d="M46.5615 93.5488H49.0351L44.8154 102H44.0879L40.0137 93.4031H42.3418L44.5244 98.2116L46.5615 93.5488Z" fill="#D78C4E"/>
<path d="M50.0547 90.4886C50.0547 90.0515 50.2002 89.7601 50.4912 89.4686C50.7822 89.1772 51.0732 89.0315 51.5098 89.0315C51.9463 89.0315 52.2373 89.1772 52.5283 89.4686C52.8193 89.7601 52.9648 90.0515 52.9648 90.4886C52.9648 90.9258 52.8193 91.2172 52.5283 91.5086C52.2373 91.8001 51.9463 91.9458 51.5098 91.9458C51.0732 91.9458 50.7822 91.8001 50.4912 91.5086C50.2002 91.2172 50.0547 90.7801 50.0547 90.4886ZM50.3457 101.854V93.5486H52.6738V101.854H50.3457Z" fill="#D78C4E"/>
<path d="M60.5312 93.5488H63.0048L58.9306 102H58.2031L54.1289 93.4031H56.457L58.6396 98.2116L60.5312 93.5488Z" fill="#D78C4E"/>
<path d="M51.0722 23.1685H44.9609V45.317H51.0722V23.1685Z" fill="#DEE4D1"/>
<path d="M48.0166 11.3657C45.834 11.3657 44.0879 12.9686 44.0879 15.1543C44.0879 17.1943 45.834 18.9429 48.0166 18.9429C50.0537 18.9429 51.7997 17.34 51.7997 15.1543C51.9452 12.9686 50.1992 11.3657 48.0166 11.3657Z" fill="#DEE4D1"/>
<path d="M58.2031 37.5942C58.2031 43.277 61.5497 45.8999 67.079 45.8999C68.6796 45.8999 70.4256 45.6085 71.7352 45.317V40.3627C71.7352 40.3627 69.1161 40.3627 68.3885 40.3627C65.6239 40.3627 64.3144 39.4884 64.3144 36.8656V28.1227H71.5897L69.6981 23.0227H64.3144V17.4856H58.2031V23.0227H54.7109V28.1227H58.2031V37.5942Z" fill="#DEE4D1"/>
<path d="M86.576 47.357L97.198 23.1685H90.7957L84.9755 37.7399L79.5917 23.1685H73.1895L81.6288 44.0056L80.9013 45.4627C79.7372 47.9399 78.2822 48.5227 76.2451 48.5227C75.5176 48.5227 73.626 48.5227 73.626 48.5227V53.3313C74.79 53.6227 76.2451 53.9142 77.5546 53.9142C81.9198 54.0599 84.539 51.8742 86.576 47.357Z" fill="#DEE4D1"/>
<path d="M50.9267 51.437H44.9609V81.017H50.9267V51.437Z" fill="#DEE4D1"/>
<path d="M68.2431 58.2856C65.4784 58.2856 63.2958 59.3056 61.6953 60.7628V58.7228H56.166V80.8714H62.2773V67.9028C62.2773 65.2799 64.0234 63.5314 66.497 63.5314C68.9706 63.5314 70.5712 65.2799 70.5712 67.9028V80.8714H76.5369V67.1742C76.6824 61.9285 73.4813 58.2856 68.2431 58.2856Z" fill="#DEE4D1"/>
<path d="M93.7059 58.2856C90.9413 58.2856 88.7587 59.3056 87.1582 60.7628V58.7228H81.6289V80.8714H87.7402V67.9028C87.7402 65.2799 89.4863 63.5314 91.9599 63.5314C94.4335 63.5314 96.034 65.2799 96.034 67.9028V80.8714H102V67.1742C102 61.9285 98.7987 58.2856 93.7059 58.2856Z" fill="#DEE4D1"/>
<path d="M26.7725 20.9829C26.918 20.9829 26.918 20.9829 27.0635 20.9829C30.5556 20.9829 33.6113 22.8772 35.2118 25.6458L40.0136 22.7315C37.3944 18.2143 32.4472 15.3 26.918 15.3C26.7725 15.3 26.7725 15.3 26.627 15.3V20.9829H26.7725Z" fill="#DEE4D1"/>
<path d="M27.2098 45.9001C32.7391 45.9001 37.6863 42.8401 40.3054 38.4687L35.5037 35.5544C33.9031 38.323 30.8475 40.2172 27.3553 40.2172C22.1171 40.2172 17.7519 35.9915 17.7519 30.6001H11.9316C11.9316 39.0515 18.7704 45.9001 27.2098 45.9001Z" fill="#DEE4D1"/>
<path d="M13.3866 0L0 9.18V30.6H11.9315C11.9315 30.3086 11.9315 30.0171 11.9315 29.7257C12.368 21.8571 18.9158 15.4457 26.7732 15.3V9.18L13.3866 0Z" fill="#D78C4E"/>
<path d="M17.6055 30.6001H26.9179V20.9829C21.6796 21.1286 17.6055 25.3543 17.6055 30.6001Z" fill="#D78C4E"/>
</g>
<defs>
<clipPath id="clip0_2632:2676">
<rect width="102" height="102" fill="white"/>
</clipPath>
</defs>
</svg>
